<svg viewBox="0 0 512 512" xmlns="http://www.w3.org/2000/svg" xmlns:xlink="http://www.w3.org/1999/xlink" overflow="hidden"><path d="M256 0C114.6 0 0 114.6 0 256 0 397.4 114.6 512 256 512 397.4 512 512 397.4 512 256 512 114.6 397.4 0 256 0ZM256 128C273.67 128 288 142.33 288 160 288 177.67 273.67 192 256 192 238.33 192 224 177.7 224 160 224 142.3 238.3 128 256 128ZM296 384 216 384C202.8 384 192 373.3 192 360 192 346.7 202.75 336 216 336L232 336 232 272 224 272C210.75 272 200 261.25 200 248 200 234.75 210.8 224 224 224L256 224C269.25 224 280 234.75 280 248L280 336 296 336C309.25 336 320 346.75 320 360 320 373.25 309.3 384 296 384Z" fill="#00B4DB"/></svg>