<svg width="148" height="29" viewBox="0 0 148 29" fill="none" xmlns="http://www.w3.org/2000/svg">
<path d="M27.125 11.9634H17.1062L14 2.25092L10.8938 11.9634H0.875L8.96875 17.9572L5.90625 27.6259L14 21.6322L22.0938 27.6259L18.9875 17.9134L27.125 11.9634Z" fill="#FEBB41"/>
<path d="M57.125 11.9634H47.1062L44 2.25092L40.8938 11.9634H30.875L38.9688 17.9572L35.9062 27.6259L44 21.6322L52.0938 27.6259L48.9875 17.9134L57.125 11.9634Z" fill="#FEBB41"/>
<path d="M117.125 11.9634H107.106L104 2.25092L100.894 11.9634H90.875L98.9688 17.9572L95.9062 27.6259L104 21.6322L112.094 27.6259L108.988 17.9134L117.125 11.9634Z" fill="#FEBB41"/>
<path d="M87.125 11.9634H77.1062L74 2.25092L70.8938 11.9634H60.875L68.9688 17.9572L65.9062 27.6259L74 21.6322L82.0938 27.6259L78.9875 17.9134L87.125 11.9634Z" fill="#FEBB41"/>
<path d="M147.125 11.9634H137.106L134 2.25092L130.894 11.9634H120.875L128.969 17.9572L125.906 27.6259L134 21.6322L142.094 27.6259L138.988 17.9134L147.125 11.9634Z" fill="#FEBB41"/>
</svg>
